<!--?xml version="1.0" standalone="no"?-->
              <svg id="sw-js-blob-svg" viewBox="0 0 100 100" xmlns="http://www.w3.org/2000/svg" version="1.1">
                    <defs> 
                        <linearGradient id="sw-gradient" x1="0" x2="1" y1="1" y2="0">
                            <stop id="stop1" stop-color="rgba(118, 238, 21, 1)" offset="0%"></stop>
                            <stop id="stop2" stop-color="rgba(182.927, 255, 186.173, 1)" offset="100%"></stop>
                        </linearGradient>
                    </defs>
                <path fill="url(#sw-gradient)" d="M14.3,-21.3C19.8,-21.6,26.4,-20.3,26.6,-16.5C26.8,-12.7,20.5,-6.4,21.3,0.4C22,7.2,29.7,14.4,30.5,19.9C31.3,25.4,25.1,29.2,18.9,29.7C12.7,30.3,6.3,27.6,1.4,25.2C-3.5,22.8,-7.1,20.6,-13.8,20.3C-20.6,20.1,-30.5,21.7,-29.8,18.7C-29,15.6,-17.5,7.8,-14.7,1.6C-11.9,-4.6,-17.8,-9.1,-18.5,-12.1C-19.2,-15,-14.7,-16.4,-10.8,-17C-6.8,-17.6,-3.4,-17.5,0.5,-18.3C4.4,-19.2,8.8,-21,14.3,-21.3Z" width="100%" height="100%" transform="translate(50 50)" stroke-width="0" style="transition: 0.3s;" stroke="url(#sw-gradient)"></path>
              </svg>