<!--?xml version="1.0" standalone="no"?-->
              <svg id="sw-js-blob-svg" viewBox="0 0 100 100" xmlns="http://www.w3.org/2000/svg" version="1.1">
                    <defs> 
                        <linearGradient id="sw-gradient" x1="0" x2="1" y1="1" y2="0">
                            <stop id="stop1" stop-color="rgba(118, 238, 21, 1)" offset="0%"></stop>
                            <stop id="stop2" stop-color="rgba(135, 246, 140, 1)" offset="100%"></stop>
                        </linearGradient>
                    </defs>
                <path fill="none" d="M16.2,-27.6C18.4,-26.7,16,-17.3,14.1,-11.3C12.1,-5.2,10.5,-2.6,13.8,1.9C17,6.3,25,12.7,24.8,15C24.6,17.3,16.3,15.6,10.8,19.3C5.3,22.9,2.7,32,-2.8,36.8C-8.3,41.7,-16.6,42.4,-20,37.5C-23.4,32.6,-21.9,22.2,-20.3,15C-18.6,7.9,-16.9,3.9,-17.8,-0.6C-18.8,-5,-22.5,-10.1,-21.2,-12.2C-19.9,-14.3,-13.6,-13.5,-9.2,-13.2C-4.9,-12.9,-2.4,-13.1,2.3,-17C6.9,-20.9,13.9,-28.5,16.2,-27.6Z" width="100%" height="100%" transform="translate(50 50)" stroke-width="1" style="transition: 0.3s;" stroke="url(#sw-gradient)"></path>
              </svg>