<!--?xml version="1.0" standalone="no"?-->
              <svg id="sw-js-blob-svg" viewBox="0 0 100 100" xmlns="http://www.w3.org/2000/svg" version="1.1">
                    <defs> 
                        <linearGradient id="sw-gradient" x1="0" x2="1" y1="1" y2="0">
                            <stop id="stop1" stop-color="rgba(118, 238, 21, 1)" offset="0%"></stop>
                            <stop id="stop2" stop-color="rgba(135, 246, 140, 1)" offset="100%"></stop>
                        </linearGradient>
                    </defs>
                <path fill="url(#sw-gradient)" d="M15.5,-25.8C19,-18.9,19.8,-12.8,23.6,-6.4C27.5,0,34.4,6.7,35.3,13.8C36.2,20.9,31.2,28.4,24.3,29.4C17.4,30.4,8.7,24.9,1,23.5C-6.7,22.2,-13.5,25,-20.2,24C-26.9,22.9,-33.7,18,-36,11.5C-38.4,5,-36.3,-3.1,-32.5,-9.2C-28.6,-15.4,-23,-19.6,-17.3,-25.8C-11.5,-32,-5.8,-40.1,0.1,-40.3C6.1,-40.5,12.1,-32.8,15.5,-25.8Z" width="100%" height="100%" transform="translate(50 50)" stroke-width="0" style="transition: 0.3s;" stroke="url(#sw-gradient)"></path>
              </svg>