<!--?xml version="1.0" standalone="no"?-->
              <svg id="sw-js-blob-svg" viewBox="0 0 100 100" xmlns="http://www.w3.org/2000/svg" version="1.1">
                    <defs> 
                        <linearGradient id="sw-gradient" x1="0" x2="1" y1="1" y2="0">
                            <stop id="stop1" stop-color="rgba(118, 238, 21, 1)" offset="0%"></stop>
                            <stop id="stop2" stop-color="rgba(182.927, 255, 186.173, 1)" offset="100%"></stop>
                        </linearGradient>
                    </defs>
                <path fill="url(#sw-gradient)" d="M13.1,-27.2C15.8,-21.3,15.7,-15.2,14.8,-10.6C14,-6,12.2,-3,10,-1.3C7.9,0.5,5.2,1,6.7,6.6C8.2,12.1,13.7,22.7,13.3,30C12.8,37.2,6.4,41.2,0.5,40.2C-5.3,39.3,-10.7,33.5,-12.7,27.1C-14.7,20.8,-13.4,13.9,-18.2,9.3C-23.1,4.7,-34,2.3,-35.9,-1.1C-37.8,-4.5,-30.6,-9,-23.5,-9.6C-16.3,-10.2,-9.2,-6.9,-5.3,-12C-1.4,-17.2,-0.7,-30.8,2.3,-34.8C5.3,-38.7,10.5,-33,13.1,-27.2Z" width="100%" height="100%" transform="translate(50 50)" stroke-width="0" style="transition: 0.3s;" stroke="url(#sw-gradient)"></path>
              </svg>