<!--?xml version="1.0" standalone="no"?-->
              <svg id="sw-js-blob-svg" viewBox="0 0 100 100" xmlns="http://www.w3.org/2000/svg" version="1.1">
                    <defs> 
                        <linearGradient id="sw-gradient" x1="0" x2="1" y1="1" y2="0">
                            <stop id="stop1" stop-color="rgba(118, 238, 21, 1)" offset="0%"></stop>
                            <stop id="stop2" stop-color="rgba(135, 246, 140, 1)" offset="100%"></stop>
                        </linearGradient>
                    </defs>
                <path fill="none" d="M13.4,-19.9C18.7,-17.5,25.2,-16,28.2,-12.1C31.1,-8.2,30.6,-1.9,30.8,5.2C31,12.4,32,20.4,28.7,25.7C25.4,30.9,17.9,33.2,11,33.5C4,33.8,-2.4,32,-6.9,28.4C-11.4,24.9,-14,19.6,-20.7,15.7C-27.4,11.9,-38.3,9.5,-38.8,5.6C-39.4,1.7,-29.7,-3.7,-23.8,-8.4C-17.9,-13.2,-15.8,-17.2,-12.5,-20.5C-9.1,-23.8,-4.6,-26.3,-0.3,-25.9C4.1,-25.5,8.1,-22.2,13.4,-19.9Z" width="100%" height="100%" transform="translate(50 50)" stroke-width="1" style="transition: 0.3s;" stroke="url(#sw-gradient)"></path>
              </svg>