<!--?xml version="1.0" standalone="no"?-->
              <svg id="sw-js-blob-svg" viewBox="0 0 100 100" xmlns="http://www.w3.org/2000/svg" version="1.1">
                    <defs> 
                        <linearGradient id="sw-gradient" x1="0" x2="1" y1="1" y2="0">
                            <stop id="stop1" stop-color="rgba(118, 238, 21, 1)" offset="0%"></stop>
                            <stop id="stop2" stop-color="rgba(182.927, 255, 186.173, 1)" offset="100%"></stop>
                        </linearGradient>
                    </defs>
                <path fill="url(#sw-gradient)" d="M4.5,-12.6C5,-7.4,4,-4.6,10.5,-2.9C17,-1.2,31,-0.6,35.4,2.6C39.9,5.8,34.9,11.5,27.5,11.7C20.2,12,10.5,6.7,5.5,11.8C0.5,16.9,0.3,32.4,-2.6,36.9C-5.4,41.4,-10.9,34.8,-11.9,27.4C-13,20,-9.6,11.8,-7.6,7.1C-5.7,2.4,-5.1,1.2,-7.2,-1.2C-9.3,-3.6,-14.1,-7.3,-16.7,-13C-19.2,-18.8,-19.6,-26.7,-16.5,-30.3C-13.3,-34,-6.7,-33.3,-2.3,-29.2C2,-25.2,4,-17.7,4.5,-12.6Z" width="100%" height="100%" transform="translate(50 50)" stroke-width="0" style="transition: 0.3s;" stroke="url(#sw-gradient)"></path>
              </svg>